<?xml version="1.0" encoding="UTF-8"?>
<svg id="Capa_2" data-name="Capa 2" xmlns="http://www.w3.org/2000/svg" version="1.1" viewBox="0 0 866.72 241.41">
  <defs>
    <style>
      .cls-1 {
        fill: #fff112;
        stroke-width: 0px;
      }
    </style>
  </defs>
  <path class="cls-1" d="M825.86,4.24c-21.21,0-38.4,17.19-38.4,38.4s17.19,38.4,38.4,38.4,38.4-17.19,38.4-38.4-17.19-38.4-38.4-38.4ZM844.32,47.14h-14.4v14.4h-8.91v-14.4h-14.4v-8.91h14.4v-14.4h8.91v14.4h14.4v8.91Z"/>
  <path class="cls-1" d="M766.82,56.94l-9.08-8.99h-125.91l-8.37,8.91,54.16,172.45,9.29,9.29h124.92l8.96-9.8-53.98-171.86ZM733.4,204.16l-38.59-122.88h16.17l38.59,122.88h-16.17Z"/>
  <path class="cls-1" d="M635.23,142.86h-17.98l11.1-21.91-19.85-63.19-9.64-9.8h-125.83l-8.58,8.4,54.48,173.46,9.09,8.78h124.6l9.63-9.74-27.01-86.01ZM536.06,81.28h16.17l12.46,39.66h-16.17l-12.46-39.66ZM574.66,204.16l-15.98-50.88h16.17l15.98,50.88h-16.17Z"/>
  <path class="cls-1" d="M293.83,229.69c2.91,2.97,5.82,5.94,8.73,8.91h53.96l11.43-36.12h7.56l11.35,36.13h23.39s11.38-36.13,11.38-36.13h7.38l11.34,36.12h53.6l9-8.64-57.15-181.96-29.31-.05-14.86,47.3h-6.32l-14.83-47.3h-29.54c-19.03,60.58-38.07,121.16-57.1,181.74Z"/>
  <path class="cls-1" d="M323.97,47.95h-127.01l-7.02,7.09-36.28,115.52h-38.74l-18.43,58.69,9.11,9.35h83.82l8.95-8.9,23.59-75.1h16.3l-23.54,74.95,8.83,9.05h45.88l8.6-8.82,54.43-173.31-8.48-8.53ZM248.82,120.94h-16.3l12.46-39.66h16.3l-12.46,39.66Z"/>
  <polygon class="cls-1" points="164.88 47.95 173.37 56.26 146.01 143.83 135.28 154.6 104.18 154.6 80.83 228.93 71.24 238.6 24.49 238.6 14.99 229.19 38.42 154.6 11.1 154.6 2.46 146.35 30.93 55.7 38.48 47.95 164.88 47.95"/>
</svg>